<?xml version="1.0" standalone="no"?><!DOCTYPE svg PUBLIC "-//W3C//DTD SVG 1.1//EN" "http://www.w3.org/Graphics/SVG/1.1/DTD/svg11.dtd"><svg class="icon" width="200px" height="200.00px" viewBox="0 0 1024 1024" version="1.1" xmlns="http://www.w3.org/2000/svg"><path fill="#1296db" d="M284.444444 483.555556a170.666667 170.666667 0 1 0 0-341.333334 170.666667 170.666667 0 0 0 0 341.333334z m0 56.888888a227.555556 227.555556 0 1 1 0-455.111111 227.555556 227.555556 0 0 1 0 455.111111zM739.555556 881.777778a170.666667 170.666667 0 1 0 0-341.333334 170.666667 170.666667 0 0 0 0 341.333334z m0 56.888889a227.555556 227.555556 0 1 1 0-455.111111 227.555556 227.555556 0 0 1 0 455.111111z"  /><path fill="#1296db" d="M312.888889 483.555556l0 455.111111-56.888889 0 0-455.111111 56.888889 0Z"  /><path fill="#1296db" d="M768 142.222222l0 398.222222-56.888889 0 0-398.222222 56.888889 0Z"  /><path fill="#1296db" d="M85.333333 654.222222l398.222223 0 0 56.888889-398.222223 0 0-56.888889Z"  /><path fill="#1296db" d="M862.947556 277.105778a28.444444 28.444444 0 0 0 40.248888-40.220445l-143.217777-143.217777a28.444444 28.444444 0 0 0-40.220445 0l-142.535111 142.506666a28.444444 28.444444 0 1 0 40.220445 40.248889l122.424888-122.424889 123.079112 123.107556z"  /></svg>