<?xml version="1.0" standalone="no"?><!DOCTYPE svg PUBLIC "-//W3C//DTD SVG 1.1//EN" "http://www.w3.org/Graphics/SVG/1.1/DTD/svg11.dtd"><svg class="icon" width="200px" height="200.00px" viewBox="0 0 1024 1024" version="1.1" xmlns="http://www.w3.org/2000/svg"><path fill="#1296db" d="M776.885368 451.121468l-0.098237-244.713444 63.784722 63.850214 0.064468-0.066515c6.03239 6.031367 14.358009 9.767458 23.567765 9.767458 18.35402 0 33.203216-14.880919 33.203216-33.30043 0-9.17701-3.705392-17.502629-9.702989-23.535019l0.065492-0.065492L776.689916 112.075565l-33.43346-33.366945L599.004051 223.12373l0.065492 0c-6.326079 6.096858-10.258645 14.619976-10.258645 24.058952 0 18.419512 14.848173 33.30043 33.20117 33.30043 9.507538 0 18.061354-3.932566 24.093744-10.356882l0.098237 0.130983 63.84919-63.915705 0.098237 244.778936c-117.506251 16.32378-207.871351 117.079532-207.804836 238.945067 0 2.883677 0.064468 5.833869 0.163729 8.718569-4.556783-11.929704-15.669888-20.518313-28.944216-21.37175l0-0.064468-0.916882 0c-0.360204 0-0.786922 0-1.180895 0-0.424672 0-0.818645 0-1.245364 0L317.416791 677.347862 317.416791 561.187259c117.40699-16.259312 207.774137-116.948549 207.774137-238.814084 0-133.205814-107.965967-241.173828-241.205551-241.173828-133.1393 0-241.173828 107.96699-241.173828 241.173828 0 121.865535 90.399893 222.555795 207.839629 238.814084l0 116.095112L94.435301 677.282371l0 0.065492c-0.032746 0-0.032746 0-0.064468 0-18.356067 0-33.203216 14.879895-33.203216 33.301454 0 18.419512 14.848173 33.301454 33.203216 33.301454 0.031722 0 0.031722 0 0.064468 0l0 0.065492 156.215878 0 0 155.756413c0 0.065492-0.032746 0.195451-0.032746 0.391926 0 18.356067 14.945387 33.301454 33.365922 33.301454 18.388812 0 33.301454-14.879895 33.366945-33.233915l0.032746 0L317.384046 744.083799l156.181085 0 0-0.197498c14.981203-0.983397 27.304879-11.864212 30.385031-26.222221 13.734816 120.226199 115.801423 213.57526 239.733013 213.510792 133.205814-0.065492 241.138012-108.101043 241.074567-241.306858C984.693274 568.068993 894.260635 467.379757 776.885368 451.121468zM285.754674 520.871041c-108.589161 0.065492-196.431811-87.842651-196.464557-196.333574 0-108.49297 87.776136-196.466604 196.367343-196.466604 108.443851-0.130983 196.400089 87.776136 196.464557 196.269106C482.219231 432.832939 394.279367 520.806573 285.754674 520.871041zM743.583914 888.497886c-109.73731 0.065492-198.531636-88.826048-198.563358-198.431352 0-109.671819 88.727811-198.563358 198.465121-198.563358 109.605304-0.132006 198.497866 88.696088 198.563358 198.36586C942.147272 799.541879 853.255733 888.433418 743.583914 888.497886z" /></svg>