<?xml version="1.0" standalone="no"?><!DOCTYPE svg PUBLIC "-//W3C//DTD SVG 1.1//EN" "http://www.w3.org/Graphics/SVG/1.1/DTD/svg11.dtd"><svg class="icon" width="200px" height="200.00px" viewBox="0 0 1024 1024" version="1.1" xmlns="http://www.w3.org/2000/svg"><path fill="#1296db" d="M802.38592 448.26624 802.16064 198.656l80.09728 81.408c8.41728 8.4992 19.49696 12.8 30.57664 12.8 10.77248 0 21.68832-4.096 29.98272-12.288 16.77312-16.60928 17.05984-43.66336 0.47104-60.55936L818.56512 93.3888c-7.10656-9.29792-23.40864-26.17344-49.64352-29.16352-16.09728-2.00704-40.96 1.20832-66.43712 26.66496-32.6656 32.74752-127.03744 129.45408-127.03744 129.45408l0.18432 0.2048c-7.49568 7.68-12.16512 18.16576-12.16512 29.75744 0 23.67488 19.16928 42.76224 42.82368 42.76224 12.02176 0 22.77376-4.99712 30.49472-12.88192l0 0c0 0 42.12736-43.25376 79.79008-81.6128l0.22528 249.81504c-125.15328 20.56192-220.75392 129.04448-220.65152 260.11648C496.20992 854.09792 614.4 972.10368 760.0128 971.8784c145.63328-0.18432 263.59808-118.25152 263.3728-263.8848C1023.32416 576.94208 927.62112 468.64384 802.38592 448.26624L802.38592 448.26624zM760.7296 878.30528c-92.09856 0-166.8096-74.6496-166.8096-166.83008 0-92.16 74.60864-166.8096 166.8096-166.8096 92.09856 0 166.8096 74.6496 166.8096 166.8096C927.51872 803.65568 852.82816 878.30528 760.7296 878.30528L760.7296 878.30528zM434.09408 691.9168l-126.6688 0.08192-0.1024-104.87808 0-11.8784c125.15328-20.56192 220.75392-129.06496 220.65152-260.11648C527.872 169.49248 409.72288 51.52768 264.0896 51.73248 118.45632 51.8144 0.49152 169.984 0.59392 315.61728c0.1024 131.05152 95.88736 239.32928 221.04064 259.72736l0 11.8784 0.08192 104.87808L91.68896 692.224c-23.67488 0-42.74176 19.16928-42.74176 42.82368 0 23.67488 19.16928 42.78272 42.84416 42.78272l130.048-0.12288 0.08192 151.83872c0 23.67488 19.18976 42.74176 42.86464 42.74176s42.74176-19.18976 42.74176-42.86464l-0.1024-151.81824 126.6688-0.1024c23.67488 0 42.74176-19.18976 42.74176-42.86464C476.85632 711.0656 457.66656 691.9168 434.09408 691.9168L434.09408 691.9168zM265.68704 486.21568c-92.09856 0-166.8096-74.62912-166.8096-166.8096 0-92.20096 74.62912-166.83008 166.8096-166.83008 92.20096 0 166.83008 74.62912 166.83008 166.83008C432.49664 411.60704 357.7856 486.21568 265.68704 486.21568L265.68704 486.21568z" /></svg>